HIERARCHY
ROOT Hips
{
	OFFSET 0.000000 0.000000 0.000000
	CHANNELS 6 Xposition Yposition Zposition Zrotation Yrotation Xrotation 
	JOINT LHipJoint
	{
		OFFSET 0.000000 0.000000 0.000000
		CHANNELS 3 Zrotation Yrotation Xrotation
		JOINT LeftUpLeg
		{
			OFFSET 1.363060 -1.794630 0.839290
			CHANNELS 3 Zrotation Yrotation Xrotation
			JOINT LeftLeg
			{
				OFFSET 2.448110 -6.726130 0.000000
				CHANNELS 3 Zrotation Yrotation Xrotation
				JOINT LeftFoot
				{
					OFFSET 2.562200 -7.039590 0.000000
					CHANNELS 3 Zrotation Yrotation Xrotation
					JOINT LeftToeBase
					{
						OFFSET 0.157640 -0.433110 2.322550
						CHANNELS 3 Zrotation Yrotation Xrotation
						End Site
						{
							OFFSET 0.000000 0.000000 0.000000
						}
					}
				}
			}
		}
	}
	JOINT RHipJoint
	{
		OFFSET 0.000000 0.000000 0.000000
		CHANNELS 3 Zrotation Yrotation Xrotation
		JOINT RightUpLeg
		{
			OFFSET -1.305520 -1.794630 0.839290
			CHANNELS 3 Zrotation Yrotation Xrotation
			JOINT RightLeg
			{
				OFFSET -2.542530 -6.985550 0.000000
				CHANNELS 3 Zrotation Yrotation Xrotation
				JOINT RightFoot
				{
					OFFSET -2.568260 -7.056230 0.000000
					CHANNELS 3 Zrotation Yrotation Xrotation
					JOINT RightToeBase
					{
						OFFSET -0.164730 -0.452590 2.363150
						CHANNELS 3 Zrotation Yrotation Xrotation
						End Site
						{
							OFFSET 0.000000 0.000000 0.000000
						}
					}
				}
			}
		}
	}
	JOINT LowerBack
	{
		OFFSET 0.000000 0.000000 0.000000
		CHANNELS 3 Zrotation Yrotation Xrotation
		JOINT Spine
		{
			OFFSET 0.028270 2.035590 -0.193380
			CHANNELS 3 Zrotation Yrotation Xrotation
			JOINT Spine1
			{
				OFFSET 0.056720 2.048850 -0.042750
				CHANNELS 3 Zrotation Yrotation Xrotation
				JOINT Neck
				{
					OFFSET 0.000000 0.000000 0.000000
					CHANNELS 3 Zrotation Yrotation Xrotation
					JOINT Neck1
					{
						OFFSET -0.054170 1.746240 0.172020
						CHANNELS 3 Zrotation Yrotation Xrotation
						JOINT Head
						{
							OFFSET 0.104070 1.761360 -0.123970
							CHANNELS 3 Zrotation Yrotation Xrotation
							End Site
							{
								OFFSET 0.000000 0.000000 0.000000
							}
						}
					}
				}
				JOINT LeftShoulder
				{
					OFFSET 0.000000 0.000000 0.000000
					CHANNELS 3 Zrotation Yrotation Xrotation
					JOINT LeftArm
					{
						OFFSET 3.362410 1.200890 -0.311210
						CHANNELS 3 Zrotation Yrotation Xrotation
						JOINT LeftForeArm
						{
							OFFSET 4.983000 -0.000000 -0.000000
							CHANNELS 3 Zrotation Yrotation Xrotation
							JOINT LeftHand
							{
								OFFSET 3.483560 -0.000000 -0.000000
								CHANNELS 3 Zrotation Yrotation Xrotation
								JOINT LeftFingerBase
								{
									OFFSET 0.000000 0.000000 0.000000
									CHANNELS 3 Zrotation Yrotation Xrotation
									JOINT LeftHandIndex1
									{
										OFFSET 0.715260 -0.000000 -0.000000
										CHANNELS 3 Zrotation Yrotation Xrotation
										End Site
										{
											OFFSET 0.000000 0.000000 0.000000
										}
									}
								}
								JOINT LThumb
								{
									OFFSET 0.000000 0.000000 0.000000
									CHANNELS 3 Zrotation Yrotation Xrotation
									End Site
									{
										OFFSET 0.000000 0.000000 0.000000
									}
								}
							}
						}
					}
				}
				JOINT RightShoulder
				{
					OFFSET 0.000000 0.000000 0.000000
					CHANNELS 3 Zrotation Yrotation Xrotation
					JOINT RightArm
					{
						OFFSET -3.136600 1.374050 -0.404650
						CHANNELS 3 Zrotation Yrotation Xrotation
						JOINT RightForeArm
						{
							OFFSET -5.241900 -0.000000 -0.000000
							CHANNELS 3 Zrotation Yrotation Xrotation
							JOINT RightHand
							{
								OFFSET -3.444170 -0.000000 -0.000000
								CHANNELS 3 Zrotation Yrotation Xrotation
								JOINT RightFingerBase
								{
									OFFSET 0.000000 0.000000 0.000000
									CHANNELS 3 Zrotation Yrotation Xrotation
									JOINT RightHandIndex1
									{
										OFFSET -0.622530 -0.000000 -0.000000
										CHANNELS 3 Zrotation Yrotation Xrotation
										End Site
										{
											OFFSET 0.000000 0.000000 0.000000
										}
									}
								}
								JOINT RThumb
								{
									OFFSET 0.000000 0.000000 0.000000
									CHANNELS 3 Zrotation Yrotation Xrotation
									End Site
									{
										OFFSET 0.000000 0.000000 0.000000
									}
								}
							}
						}
					}
				}
			}
		}
	}
}
MOTION
Frames: 4
Frame Time: 0.008333
-13.034875 15.986260 -0.748027 149.841571 88.242000 174.079988 -11.497245 1.243934 -4.977208 -6.143390 8.658546 -21.308387 -1.445622 3.150432 50.663451 0.729735 2.821600 -12.829135 -0.375000 -0.000000 -70.899300 8.044284 1.685537 -1.425959 13.513294 4.098458 -60.238631 1.458730 -4.102691 49.791712 -1.545064 -3.842824 -13.006117 0.188700 0.000001 -1.052500 4.048222 -3.673953 9.540352 0.292563 -3.554705 -0.940986 -5.449137 -3.473898 0.105705 7.616827 -12.399317 -7.093773 -2.855820 -0.199369 -0.179225 0.000000 0.000000 0.000000 5.890362 4.597294 0.821349 -60.468819 -3.483247 5.103648 -179.612504 -86.030784 -179.990087 -2.370445 7.038499 -0.139676 -0.008940 0.238223 0.000000 0.000000 0.000000 0.000000 0.000000 0.000000 0.000000 9.896314 -9.636455 1.580282 69.368476 -14.370022 2.103564 1.007913 64.752626 -0.009196 -3.469671 -1.336335 0.037908 0.089924 -0.137377 -0.000000 0.000000 0.000000 0.000000 0.000000 0.000000 0.000000 
-12.891862 15.976519 -0.719712 150.623123 88.110724 174.831782 -11.555750 1.286178 -4.929013 -5.804586 8.623669 -21.171001 -1.341452 3.198648 51.150180 0.673885 2.557107 -11.738451 -0.279800 -0.000000 -72.159600 8.063041 1.665550 -1.510282 13.659327 3.950911 -59.985650 1.444363 -4.155506 50.669901 -1.614262 -3.917682 -14.144460 0.323200 -0.000000 -1.018200 4.297999 -3.698964 9.547758 0.342564 -3.580041 -0.948583 -5.450094 -3.502719 0.080117 7.682393 -12.288499 -7.084299 -2.877168 -0.200999 -0.176432 0.000000 0.000000 0.000000 5.884555 4.524801 0.851682 -60.921730 -2.896881 5.150311 -179.661120 -86.689949 -179.990575 -2.302116 7.009143 -0.134967 -0.010143 0.235868 0.000000 0.000000 0.000000 0.000000 0.000000 0.000000 0.000000 10.063379 -9.550144 1.569507 69.315184 -13.962138 1.917979 1.015162 64.581235 -0.009620 -3.583753 -1.373716 0.040207 0.091449 -0.138254 -0.000000 0.000000 0.000000 0.000000 0.000000 0.000000 0.000000 
-12.750126 15.968572 -0.691171 151.178236 87.975212 175.395480 -11.610200 1.324194 -4.873107 -5.494963 8.559630 -21.140324 -1.228576 3.248538 51.703500 0.626658 2.319630 -10.581782 -0.196401 -0.000000 -73.276501 8.081913 1.641063 -1.581778 13.803319 3.806631 -59.724404 1.437307 -4.197846 51.426288 -1.688879 -4.016537 -15.236573 0.457500 -0.000000 -1.110400 4.535746 -3.715890 9.533395 0.389255 -3.597954 -0.959831 -5.453731 -3.524429 0.056123 7.761929 -12.170368 -7.067232 -2.897595 -0.202659 -0.171438 0.000000 0.000000 0.000000 5.905690 4.438172 0.879738 -61.417494 -2.318692 5.227515 -179.715666 -87.446240 -179.991160 -2.219678 6.983168 -0.129557 -0.011541 0.233196 0.000000 0.000000 0.000000 0.000000 0.000000 0.000000 0.000000 10.243078 -9.457180 1.556543 69.279272 -13.515850 1.716727 1.021228 64.410657 -0.010105 -3.711152 -1.415616 0.043007 0.093059 -0.139348 -0.000000 0.000000 0.000000 0.000000 0.000000 0.000000 0.000000 
-12.609921 15.962304 -0.662363 151.442984 87.834228 175.705476 -11.660773 1.356650 -4.811771 -5.220538 8.470385 -21.215439 -1.106444 3.299390 52.325198 0.588001 2.104554 -9.346051 -0.124300 0.000000 -74.186600 8.101815 1.613665 -1.639433 13.931102 3.673628 -59.464048 1.433127 -4.231579 52.080982 -1.765938 -4.134140 -16.255739 0.589200 0.000000 -1.235900 4.757322 -3.724773 9.499352 0.431965 -3.608365 -0.974147 -5.459575 -3.538866 0.033810 7.852948 -12.044767 -7.043222 -2.916426 -0.204288 -0.164479 0.000000 0.000000 0.000000 5.953996 4.339762 0.906461 -61.948813 -1.754910 5.337274 -179.775410 -88.297482 -179.991795 -2.129549 6.960064 -0.123748 -0.013051 0.230194 0.000000 0.000000 0.000000 0.000000 0.000000 0.000000 0.000000 10.430009 -9.355966 1.541170 69.265207 -13.038872 1.499037 1.025410 64.252576 -0.010646 -3.848539 -1.459979 0.046006 0.094682 -0.140705 -0.000000 0.000000 0.000000 0.000000 0.000000 0.000000 0.000000 
